<mxfile host="app.diagrams.net" modified="2023-05-22T12:52:43.444Z" agent="Mozilla/5.0 (Windows NT 10.0; Win64; x64) AppleWebKit/537.36 (KHTML, like Gecko) Chrome/113.0.0.0 Safari/537.36 Edg/113.0.1774.50" etag="PkQpNqZLVn24aaDu_ZUB" version="21.2.9" type="github">
  <diagram id="UZ9wccwawinMBmHLIlsm" name="前端">
    <mxGraphModel dx="1430" dy="797" grid="1" gridSize="10" guides="1" tooltips="1" connect="1" arrows="1" fold="1" page="1" pageScale="1" pageWidth="827" pageHeight="1169" math="0" shadow="0">
      <root>
        <mxCell id="0" />
        <mxCell id="1" parent="0" />
        <mxCell id="DOrzI2ncTwfLIa81HKQh-5" value="" style="edgeStyle=orthogonalEdgeStyle;rounded=0;orthogonalLoop=1;jettySize=auto;html=1;" parent="1" target="DOrzI2ncTwfLIa81HKQh-4" edge="1">
          <mxGeometry relative="1" as="geometry">
            <mxPoint x="400" y="200" as="sourcePoint" />
          </mxGeometry>
        </mxCell>
        <mxCell id="DOrzI2ncTwfLIa81HKQh-4" value="发送请求&lt;br&gt;获取背景图片" style="whiteSpace=wrap;html=1;rounded=0;" parent="1" vertex="1">
          <mxGeometry x="480" y="170" width="120" height="60" as="geometry" />
        </mxCell>
        <mxCell id="DOrzI2ncTwfLIa81HKQh-6" value="首页" style="rounded=0;whiteSpace=wrap;html=1;" parent="1" vertex="1">
          <mxGeometry x="70" y="270" width="120" height="60" as="geometry" />
        </mxCell>
        <mxCell id="DOrzI2ncTwfLIa81HKQh-7" value="登录模块" style="rounded=0;whiteSpace=wrap;html=1;" parent="1" vertex="1">
          <mxGeometry x="280" y="170" width="120" height="60" as="geometry" />
        </mxCell>
        <mxCell id="DOrzI2ncTwfLIa81HKQh-8" value="背景模块" style="rounded=0;whiteSpace=wrap;html=1;" parent="1" vertex="1">
          <mxGeometry x="280" y="270" width="120" height="60" as="geometry" />
        </mxCell>
        <mxCell id="DOrzI2ncTwfLIa81HKQh-15" style="edgeStyle=orthogonalEdgeStyle;rounded=0;orthogonalLoop=1;jettySize=auto;html=1;entryX=0.5;entryY=0;entryDx=0;entryDy=0;" parent="1" source="DOrzI2ncTwfLIa81HKQh-9" target="DOrzI2ncTwfLIa81HKQh-14" edge="1">
          <mxGeometry relative="1" as="geometry" />
        </mxCell>
        <mxCell id="DOrzI2ncTwfLIa81HKQh-9" value="图片组件BackGround" style="rounded=1;whiteSpace=wrap;html=1;" parent="1" vertex="1">
          <mxGeometry x="280" y="410" width="120" height="60" as="geometry" />
        </mxCell>
        <mxCell id="DOrzI2ncTwfLIa81HKQh-21" style="edgeStyle=orthogonalEdgeStyle;rounded=0;orthogonalLoop=1;jettySize=auto;html=1;" parent="1" source="DOrzI2ncTwfLIa81HKQh-10" edge="1">
          <mxGeometry relative="1" as="geometry">
            <mxPoint x="340" y="800" as="targetPoint" />
          </mxGeometry>
        </mxCell>
        <mxCell id="DOrzI2ncTwfLIa81HKQh-10" value="请求接口获取图片url" style="whiteSpace=wrap;html=1;rounded=1;" parent="1" vertex="1">
          <mxGeometry x="280" y="680" width="120" height="60" as="geometry" />
        </mxCell>
        <mxCell id="DOrzI2ncTwfLIa81HKQh-13" value="直接用本地" style="whiteSpace=wrap;html=1;rounded=1;" parent="1" vertex="1">
          <mxGeometry x="470" y="550" width="120" height="60" as="geometry" />
        </mxCell>
        <mxCell id="DOrzI2ncTwfLIa81HKQh-16" style="edgeStyle=orthogonalEdgeStyle;rounded=0;orthogonalLoop=1;jettySize=auto;html=1;entryX=0;entryY=0.5;entryDx=0;entryDy=0;" parent="1" source="DOrzI2ncTwfLIa81HKQh-14" target="DOrzI2ncTwfLIa81HKQh-13" edge="1">
          <mxGeometry relative="1" as="geometry" />
        </mxCell>
        <mxCell id="DOrzI2ncTwfLIa81HKQh-17" style="edgeStyle=orthogonalEdgeStyle;rounded=0;orthogonalLoop=1;jettySize=auto;html=1;entryX=0.5;entryY=0;entryDx=0;entryDy=0;" parent="1" source="DOrzI2ncTwfLIa81HKQh-14" target="DOrzI2ncTwfLIa81HKQh-10" edge="1">
          <mxGeometry relative="1" as="geometry" />
        </mxCell>
        <mxCell id="DOrzI2ncTwfLIa81HKQh-14" value="和llocalstorage要" style="rhombus;whiteSpace=wrap;html=1;" parent="1" vertex="1">
          <mxGeometry x="300" y="540" width="80" height="80" as="geometry" />
        </mxCell>
        <mxCell id="DOrzI2ncTwfLIa81HKQh-18" value="无数据" style="text;html=1;align=center;verticalAlign=middle;resizable=0;points=[];autosize=1;strokeColor=none;fillColor=none;" parent="1" vertex="1">
          <mxGeometry x="340" y="640" width="60" height="30" as="geometry" />
        </mxCell>
        <mxCell id="DOrzI2ncTwfLIa81HKQh-19" value="初始化" style="text;html=1;align=center;verticalAlign=middle;resizable=0;points=[];autosize=1;strokeColor=none;fillColor=none;" parent="1" vertex="1">
          <mxGeometry x="334" y="490" width="60" height="30" as="geometry" />
        </mxCell>
        <mxCell id="DOrzI2ncTwfLIa81HKQh-27" value="" style="endArrow=none;dashed=1;html=1;dashPattern=1 3;strokeWidth=2;rounded=0;" parent="1" edge="1">
          <mxGeometry width="50" height="50" relative="1" as="geometry">
            <mxPoint x="640" y="800" as="sourcePoint" />
            <mxPoint x="640" y="410" as="targetPoint" />
          </mxGeometry>
        </mxCell>
        <mxCell id="DOrzI2ncTwfLIa81HKQh-34" value="" style="edgeStyle=orthogonalEdgeStyle;rounded=0;orthogonalLoop=1;jettySize=auto;html=1;" parent="1" source="DOrzI2ncTwfLIa81HKQh-30" target="DOrzI2ncTwfLIa81HKQh-33" edge="1">
          <mxGeometry relative="1" as="geometry" />
        </mxCell>
        <mxCell id="DOrzI2ncTwfLIa81HKQh-37" style="edgeStyle=orthogonalEdgeStyle;rounded=0;orthogonalLoop=1;jettySize=auto;html=1;entryX=0;entryY=0.5;entryDx=0;entryDy=0;" parent="1" source="DOrzI2ncTwfLIa81HKQh-30" target="DOrzI2ncTwfLIa81HKQh-10" edge="1">
          <mxGeometry relative="1" as="geometry">
            <mxPoint x="340" y="980" as="targetPoint" />
            <Array as="points">
              <mxPoint x="340" y="940" />
              <mxPoint x="260" y="940" />
              <mxPoint x="260" y="710" />
            </Array>
          </mxGeometry>
        </mxCell>
        <mxCell id="DOrzI2ncTwfLIa81HKQh-30" value="url接口数据" style="rhombus;whiteSpace=wrap;html=1;" parent="1" vertex="1">
          <mxGeometry x="300" y="800" width="80" height="80" as="geometry" />
        </mxCell>
        <mxCell id="DOrzI2ncTwfLIa81HKQh-33" value="1.添加加载动画&lt;br&gt;2.基于el-image渲染" style="whiteSpace=wrap;html=1;rounded=1;align=center;" parent="1" vertex="1">
          <mxGeometry x="470" y="810" width="120" height="60" as="geometry" />
        </mxCell>
        <mxCell id="DOrzI2ncTwfLIa81HKQh-35" value="有数据" style="text;html=1;align=center;verticalAlign=middle;resizable=0;points=[];autosize=1;strokeColor=none;fillColor=none;" parent="1" vertex="1">
          <mxGeometry x="390" y="550" width="60" height="30" as="geometry" />
        </mxCell>
        <mxCell id="DOrzI2ncTwfLIa81HKQh-36" value="获取成功" style="text;html=1;align=center;verticalAlign=middle;resizable=0;points=[];autosize=1;strokeColor=none;fillColor=none;" parent="1" vertex="1">
          <mxGeometry x="380" y="805" width="70" height="30" as="geometry" />
        </mxCell>
        <mxCell id="DOrzI2ncTwfLIa81HKQh-38" value="获取失败&lt;br&gt;1.基于el-image回调重试，并提示&lt;br&gt;2.显示兜底图片" style="text;html=1;align=left;verticalAlign=middle;resizable=0;points=[];autosize=1;strokeColor=none;fillColor=none;" parent="1" vertex="1">
          <mxGeometry x="70" y="810" width="200" height="60" as="geometry" />
        </mxCell>
        <mxCell id="uw0mjo5URNsfaLpxlkcJ-1" value="右键菜单栏组件" style="rounded=1;whiteSpace=wrap;html=1;" parent="1" vertex="1">
          <mxGeometry x="770" y="410" width="120" height="60" as="geometry" />
        </mxCell>
        <mxCell id="uw0mjo5URNsfaLpxlkcJ-2" value="&lt;div style=&quot;text-align: left;&quot;&gt;&lt;span style=&quot;background-color: initial;&quot;&gt;1.封装ContextMenu组件，暴露show属性，left，right坐标&lt;/span&gt;&lt;/div&gt;&lt;div style=&quot;text-align: left;&quot;&gt;&lt;span style=&quot;background-color: initial;&quot;&gt;使用在外部组件绑定@contextmenu.prevent即可&lt;/span&gt;&lt;/div&gt;&lt;div style=&quot;text-align: left;&quot;&gt;2.图片组件需要导入，用作用户自定义上传图片&lt;/div&gt;" style="text;html=1;align=center;verticalAlign=middle;resizable=0;points=[];autosize=1;strokeColor=none;fillColor=none;" parent="1" vertex="1">
          <mxGeometry x="690" y="475" width="330" height="60" as="geometry" />
        </mxCell>
        <mxCell id="uw0mjo5URNsfaLpxlkcJ-3" value="图片组件" style="rounded=1;whiteSpace=wrap;html=1;" parent="1" vertex="1">
          <mxGeometry x="690" y="550" width="120" height="60" as="geometry" />
        </mxCell>
        <mxCell id="uw0mjo5URNsfaLpxlkcJ-4" value="直接用本地" style="whiteSpace=wrap;html=1;rounded=1;" parent="1" vertex="1">
          <mxGeometry x="690" y="660" width="120" height="60" as="geometry" />
        </mxCell>
      </root>
    </mxGraphModel>
  </diagram>
</mxfile>
